<?xml version="1.0" encoding="utf-8"?>
<!-- Generator: Adobe Illustrator 22.1.0, SVG Export Plug-In . SVG Version: 6.00 Build 0)  -->
<svg version="1.1" id="Layer_1" xmlns="http://www.w3.org/2000/svg" xmlns:xlink="http://www.w3.org/1999/xlink" x="0px" y="0px"
	 viewBox="0 0 16 16" style="enable-background:new 0 0 16 16;" xml:space="preserve">
<style type="text/css">
	.st0{fill:#030303;}
	.st1{fill:#459D95;}
</style>
<g>
	<path class="st0" d="M8,16c-1.5,0-2.7-0.1-4-0.2c-0.7-0.1-1.3-0.2-2-0.4C1.5,15.2,1,15,0.7,14.5c-0.2-0.4-0.4-0.8-0.5-1.2
		C0,12.2-0.1,11-0.1,9.8c0-0.8,0-1.6,0.1-2.4C0.1,6.7,0.2,6,0.5,5.3c0.2-0.5,0.6-0.9,1.1-1.1C2.2,4,2.8,3.8,3.4,3.7
		c0.7-0.1,1.3-0.2,2-0.2c0,0,0.1,0,0.1,0c0-0.1-0.1-0.1-0.1-0.1C4.7,3,4.1,2.6,3.4,2.2C2.9,1.9,2.3,1.6,1.8,1.3
		C1.5,1.1,1.3,0.8,1.4,0.5C1.5,0.3,1.8,0,2.1,0c0.1,0,0.3,0,0.4,0.1c1.1,0.6,2.3,1.3,3.4,1.9c0.6,0.4,1.3,0.7,1.9,1.1
		c0.1,0,0.1,0.1,0.2,0c1.7-1,3.5-2,5.2-3c0.3-0.2,0.6-0.2,0.9,0c0.2,0.2,0.3,0.5,0.1,0.8c-0.1,0.1-0.2,0.2-0.3,0.3
		c-1.2,0.7-2.3,1.3-3.5,2c0,0-0.1,0-0.1,0.1c0,0.1,0.1,0,0.1,0c0.6,0,1.2,0.1,1.7,0.2c0.6,0.1,1.1,0.2,1.7,0.4
		c0.3,0.1,0.7,0.3,1,0.5c0.3,0.3,0.5,0.7,0.6,1.1c0.4,1.2,0.4,2.4,0.4,3.7c0,0.8,0,1.6-0.1,2.5c-0.1,0.8-0.2,1.6-0.5,2.4
		c-0.2,0.4-0.5,0.8-1,1c-0.7,0.3-1.4,0.5-2.1,0.6c-0.7,0.1-1.5,0.2-2.2,0.2C9.2,16,8.5,16,8,16z M8.4,14.4c0.6,0,1.3-0.1,1.9-0.1
		c0.8,0,1.5-0.1,2.3-0.3c0.6-0.1,1.1-0.5,1.3-1.1c0.2-0.5,0.2-1,0.3-1.5c0.1-0.8,0.1-1.5,0-2.3c0-0.8-0.1-1.6-0.3-2.4
		c-0.2-0.6-0.5-1-1-1.2c-0.3-0.1-0.5-0.2-0.8-0.2C11,5.2,9.9,5.1,8.7,5.1C8,5,7.3,5,6.5,5.1C5.5,5.1,4.4,5.2,3.3,5.4
		C2.7,5.5,2.2,5.8,2,6.4C1.9,6.8,1.8,7.2,1.7,7.6c-0.2,1.4-0.1,2.7,0,4.1c0,0.4,0.1,0.8,0.2,1.1c0.1,0.4,0.3,0.8,0.7,1
		C2.9,13.9,3.2,14,3.5,14c0.8,0.1,1.6,0.2,2.4,0.3C6.7,14.3,7.6,14.4,8.4,14.4z"/>
	<path class="st1" d="M4.7,11.3c-0.9,0-1.9-0.8-1.9-1.9c0-1,0.9-1.9,1.9-1.9c1.1,0,1.9,0.9,1.9,1.9C6.6,10.5,5.8,11.3,4.7,11.3z"/>
	<path class="st1" d="M11.3,7.6c1,0,1.9,0.8,1.9,1.9c0,1.1-0.9,1.9-1.9,1.9c-1.1,0-1.9-0.8-1.9-1.9C9.3,8.4,10.2,7.6,11.3,7.6z"/>
</g>
</svg>
