<?xml version="1.0" standalone="no"?>
<!DOCTYPE svg PUBLIC "-//W3C//DTD SVG 20010904//EN"
 "http://www.w3.org/TR/2001/REC-SVG-20010904/DTD/svg10.dtd">
<svg version="1.0" xmlns="http://www.w3.org/2000/svg"
 width="150.000000pt" height="150.000000pt" viewBox="0 0 150.000000 150.000000"
 preserveAspectRatio="xMidYMid meet">
<metadata>
Created by potrace 1.15, written by Peter Selinger 2001-2017
</metadata>
<g transform="translate(0.000000,150.000000) scale(0.100000,-0.100000)"
fill="#000000" stroke="none">
<path d="M200 1491 c0 -5 -8 -12 -18 -16 -11 -3 -24 -16 -29 -28 -17 -37 9
-72 85 -113 37 -21 79 -46 94 -56 14 -10 64 -38 110 -63 46 -25 79 -45 73 -45
-71 -4 -240 -24 -240 -29 0 -2 -11 -5 -24 -7 -14 -2 -38 -11 -54 -19 -17 -8
-34 -15 -39 -15 -14 0 -69 -54 -84 -82 -19 -37 -54 -185 -54 -230 0 -21 -4
-38 -10 -38 -6 0 -10 -58 -10 -155 0 -85 4 -155 8 -155 4 0 13 -37 19 -82 6
-46 19 -106 29 -135 18 -56 67 -123 90 -123 8 0 14 -5 14 -11 0 -5 4 -7 10 -4
5 3 10 2 10 -4 0 -6 7 -8 15 -5 8 4 15 1 15 -5 0 -6 7 -8 15 -5 8 4 15 2 15
-4 0 -8 20 -12 73 -13 9 0 17 -4 17 -8 0 -4 18 -6 40 -4 22 2 40 0 40 -6 0 -5
21 -8 50 -5 27 2 50 0 50 -4 0 -11 474 -9 483 3 4 6 10 5 16 -4 6 -10 10 -10
16 -1 4 6 17 9 30 6 13 -3 27 -2 30 4 4 6 23 7 46 4 25 -4 39 -3 39 4 0 6 13
9 30 7 17 -2 30 0 30 5 0 5 7 7 15 4 8 -4 15 -1 15 6 0 7 8 9 20 5 12 -4 20
-2 20 5 0 6 5 8 10 5 6 -3 10 -1 10 5 0 6 4 9 9 5 5 -3 16 1 24 9 8 8 17 12
21 9 3 -4 6 1 6 10 0 10 5 17 11 17 27 0 89 203 89 295 0 19 5 35 10 35 12 0
14 266 1 274 -4 3 -11 36 -15 73 -15 144 -58 249 -115 279 -20 10 -39 23 -43
29 -4 5 -8 7 -8 2 0 -4 -14 0 -30 8 -17 9 -35 13 -40 10 -5 -3 -11 -1 -14 3
-3 5 -20 9 -37 10 -18 0 -63 6 -101 12 -38 7 -74 10 -82 7 -7 -3 -18 -2 -24 2
-7 4 12 19 46 36 31 15 80 42 107 60 28 17 66 39 85 49 80 41 91 48 106 77 14
29 14 33 -6 62 -16 24 -30 32 -51 32 -16 0 -29 -3 -29 -7 0 -10 -80 -50 -80
-41 0 5 -6 1 -13 -8 -14 -18 -58 -44 -69 -41 -5 1 -8 -1 -8 -6 0 -4 -30 -23
-68 -42 -37 -19 -69 -38 -72 -41 -8 -9 -125 -73 -130 -72 -3 1 -15 -8 -27 -19
-21 -20 -24 -20 -48 -4 -13 9 -27 15 -29 14 -2 -2 -12 5 -23 14 -10 10 -50 34
-88 54 -39 19 -72 39 -75 42 -3 4 -35 23 -72 42 -38 19 -68 38 -68 43 0 4 -5
5 -10 2 -6 -3 -13 1 -16 9 -3 9 -10 13 -15 10 -5 -3 -9 0 -9 7 0 7 -3 10 -6 6
-9 -8 -64 21 -64 34 0 6 -4 7 -10 4 -5 -3 -10 -1 -10 4 0 6 -7 11 -15 11 -8 0
-15 -4 -15 -9z m790 -483 c36 -2 70 -6 75 -9 6 -4 21 -5 35 -4 31 3 117 -21
148 -42 56 -35 78 -153 76 -398 -2 -229 -41 -329 -134 -341 -8 -1 -53 -9 -100
-17 -144 -26 -495 -28 -660 -3 -19 3 -56 7 -82 10 -53 6 -81 19 -115 55 -25
26 -54 110 -52 151 0 14 -3 75 -7 136 -11 174 16 344 63 396 20 22 99 49 152
51 23 1 41 5 41 9 0 4 29 6 64 5 35 -2 73 0 83 4 16 5 249 4 413 -3z"/>
</g>
</svg>
